<svg width="220" height="220" viewBox="0 0 220 220" fill="none" xmlns="http://www.w3.org/2000/svg">
<defs>
  <linearGradient id="g" x1="40" y1="30" x2="190" y2="200" gradientUnits="userSpaceOnUse">
    <stop stop-color="#BBF7D0"/>
    <stop offset="0.55" stop-color="#BAE6FD"/>
    <stop offset="1" stop-color="#FDE68A"/>
  </linearGradient>
</defs>
<path d="M110 42c23 0 44 10 58 26 15 17 21 40 16 63-8 41-40 73-74 73-34 0-66-32-74-73-5-23 1-46 16-63 14-16 35-26 58-26Z" fill="url(#g)" opacity="0.95"/>
<path d="M118 44c-6-14-1-28 13-34 7-3 16-2 23 2-10 4-17 10-18 18 0 6 3 10 8 14-10 2-19 2-26 0Z" fill="#0B1220" opacity="0.12"/>
<path d="M79 117c7-19 22-33 39-39 5-2 11 0 13 5 2 5 0 11-5 13-13 5-24 16-29 29-2 5-8 8-13 6-5-2-8-8-5-14Z" fill="#0B1220" opacity="0.12"/>
</svg>